<svg width="200" height="60" viewBox="0 0 230 50" xmlns="http://www.w3.org/2000/svg" xmlns:xlink="http://www.w3.org/1999/xlink" class="looka-1j8o68f">
   <defs id="SvgjsDefs1803">
    <linearGradient id="SvgjsLinearGradient1808">
      <stop id="SvgjsStop1809" stop-color="#7f00ff" offset="0"/>
      <stop id="SvgjsStop1810" stop-color="#e100ff" offset="1"/>
    </linearGradient>
    <linearGradient id="SvgjsLinearGradient1811">
      <stop id="SvgjsStop1812" stop-color="#7f00ff" offset="0"/>
      <stop id="SvgjsStop1813" stop-color="#e100ff" offset="1"/>
    </linearGradient>
  </defs>
  <g id="SvgjsG1804" featurekey="xG21Y3-0" transform="matrix(0.3015075376884422,0,0,0.3015075376884422,-11.758793969849245,-2.7437185929648233)" fill="url(#SvgjsLinearGradient1808)">
    <g xmlns="http://www.w3.org/2000/svg">
      <path fill-rule="evenodd" clip-rule="evenodd" d="M130.6,61.8c1.8,1.1,4.4,3.8,4.4,9.5c0,4.7-5.4,7.2-10.3,8.5   c-9.9,1.1-16.7,3.5-16.7,6.3c0,3.9,13.2,7,29.5,7s29.5-3.1,29.5-7c0-2.8-6.9-5.2-16.8-6.3c-5.3-1.3-11.3-3.8-11.2-8.5   c0.1-5.8,2.9-8.4,4.6-9.5C149.7,59.1,154,53,154,46c0-9.4-7.6-17-17-17c-9.4,0-17,7.6-17,17C120,53.1,124.4,59.3,130.6,61.8z    M124.6,40.7c1.2-3.2,3.8-5.7,6.9-7c0.8-0.3,1.6,0.1,2,0.8c0.3,0.8-0.1,1.6-0.8,2c-2.4,1-4.3,2.9-5.3,5.3c-0.3,0.8-1.2,1.2-1.9,0.8   C124.7,42.4,124.3,41.5,124.6,40.7z"/>
      <path fill-rule="evenodd" clip-rule="evenodd" d="M132.3,74.2c0.2-0.4,0.4-0.7,0.5-1.1C100.4,73.7,75,80.1,75,88   c0,8.3,28.2,15,63,15c34.8,0,63-6.7,63-15c0-8-26.4-14.6-59.7-15c0.2,0.4,0.3,0.7,0.6,1.1c24.2,0.5,43.2,5.3,43.2,11.2   c0,6.2-21.1,11.2-47.1,11.2c-26,0-47.1-5-47.1-11.2C90.9,79.6,109,74.8,132.3,74.2z"/>
      <path fill-rule="evenodd" clip-rule="evenodd" d="M238,90.5c0-12.8-43.1-23.2-96.9-23.5c-0.1,0.4-0.1,0.8-0.1,1.2   c43.3,0.3,78,8.7,78,19c0,10.5-36,19.1-80.5,19.1S58,97.8,58,87.3c0-10.1,33.2-18.4,75.1-19c0-0.4-0.1-0.8-0.1-1.3   C80.6,67.7,39,78,39,90.5c0,12.6,42.3,23,95.3,23.5c0.5,0.8,0.7,1.8,0.7,2.8c0,5.7-2.6,8.3-4.4,9.5c-6.2,2.5-10.6,8.6-10.6,15.8   c0,9.4,7.6,17,17,17s17-7.6,17-17c0-7-4.3-13.1-10.4-15.7c-1.7-1.1-4.5-3.7-4.6-9.5c0-1.1,0.3-2,0.8-2.9   C194.2,113.8,238,103.4,238,90.5z M133.5,152.8c-0.3,0.8-1.2,1.1-2,0.8c-3.2-1.3-5.7-3.8-6.9-7c-0.3-0.8,0.1-1.6,0.8-1.9   c0.8-0.3,1.6,0.1,1.9,0.8c0.9,2.4,2.9,4.4,5.3,5.3C133.5,151.2,133.8,152.1,133.5,152.8z"/>
    </g>
  </g>
  <g id="SvgjsG1805" featurekey="n48U4P-0" transform="matrix(3.3875333850574503,0,0,3.3875333850574503,75.32520677155188,-18.224929999281514)" fill="url(#SvgjsLinearGradient1811)">
    <path d="M8.12 5.720000000000001 c3.0266 0 4.54 1.1733 4.54 3.52 c0 1.3467 -0.64666 2.3466 -1.94 3 c0.88 0.25334 1.5367 0.69668 1.97 1.33 s0.65 1.3967 0.65 2.29 c0 1.28 -0.46334 2.29 -1.39 3.03 s-2.1434 1.11 -3.65 1.11 l-6.92 0 l0 -14.28 l6.74 0 z M7.72 11.5 c1.2667 0 1.9 -0.56666 1.9 -1.7 c0 -1.0933 -0.70666 -1.64 -2.12 -1.64 l-2.98 0 l0 3.34 l3.2 0 z M7.9 17.56 c1.5333 0 2.3 -0.62666 2.3 -1.88 c0 -1.36 -0.74666 -2.04 -2.24 -2.04 l-3.44 0 l0 3.92 l3.38 0 z M21.86 5.380000000000001 c1.6667 0 3.0666 0.47 4.2 1.41 s1.7867 2.1834 1.96 3.73 l-3.04 0 c-0.10666 -0.70666 -0.46 -1.3 -1.06 -1.78 s-1.2867 -0.72 -2.06 -0.72 c-1.2267 0 -2.18 0.44 -2.86 1.32 s-1.02 2.0734 -1.02 3.58 c0 1.4667 0.34334 2.63 1.03 3.49 s1.6367 1.29 2.85 1.29 c0.90666 0 1.64 -0.27666 2.2 -0.83 s0.90666 -1.3433 1.04 -2.37 l3.04 0 c-0.16 1.8133 -0.81 3.24 -1.95 4.28 s-2.5834 1.56 -4.33 1.56 c-2.0934 0 -3.7866 -0.69 -5.08 -2.07 s-1.94 -3.1634 -1.94 -5.35 c0 -2.2134 0.64 -4.0234 1.92 -5.43 s2.98 -2.11 5.1 -2.11 z M34.699999999999996 5.720000000000001 l3.34 9.82 l0.04 0 l3.16 -9.82 l4.42 0 l0 14.28 l-2.94 0 l0 -10.12 l-0.04 0 l-3.5 10.12 l-2.42 0 l-3.5 -10.02 l-0.04 0 l0 10.02 l-2.94 0 l0 -14.28 l4.42 0 z"/>
  </g>
</svg>
